<svg width="20" height="20" viewBox="0 0 20 20" fill="none" xmlns="http://www.w3.org/2000/svg">
<path d="M2.87115 12.5C3.88914 15.6939 6.80463 18 10.2424 18C14.5268 18 18 14.4183 18 10C18 5.58172 14.5268 2 10.2424 2C7.37103 2 4.86399 3.60879 3.52267 6M5.87879 7H2V3" stroke="#64696E" stroke-width="2" stroke-linecap="round" stroke-linejoin="round"/>
<path d="M8.77273 14.6667V6.66675H12.5909C13.0972 6.66675 13.5828 6.84736 13.9408 7.16885C14.2989 7.49034 14.5 7.92638 14.5 8.38103C14.5 8.83569 14.2989 9.27173 13.9408 9.59322C13.5828 9.91471 13.0972 10.0953 12.5909 10.0953H7.5M12.5909 12.381H7.5" stroke="#64696E" stroke-width="2" stroke-linecap="round" stroke-linejoin="round"/>
</svg>
