<svg width="20" height="20" viewBox="0 0 20 20" fill="none" xmlns="http://www.w3.org/2000/svg">
<path d="M9.45119 3.88534C9.62172 3.37155 10.3783 3.37155 10.5488 3.88534L11.6997 7.35268C11.9134 7.99654 12.5217 8.423 13.1976 8.423H16.9219C17.5023 8.423 17.6908 9.11789 17.2646 9.42102L14.2516 11.564C13.6984 11.9573 13.4615 12.6607 13.6759 13.3066L14.8268 16.7739C14.9843 17.2484 14.4168 17.729 13.9353 17.3866L10.9223 15.2437C10.3716 14.8521 9.62836 14.8521 9.07774 15.2437L6.0647 17.3866C5.58323 17.729 5.01571 17.2484 5.17321 16.7739L6.32409 13.3066C6.53848 12.6607 6.30157 11.9573 5.74845 11.564L2.73541 9.42102L2.44561 9.82848L2.73541 9.42102C2.3092 9.1179 2.49769 8.423 3.07808 8.423H6.80241C7.47828 8.423 8.08659 7.99654 8.30031 7.35268L9.45119 3.88534Z" fill="#FB923C" stroke="#FB923C"/>
</svg>
